<?xml version="1.0" encoding="UTF-8"?>
<svg version="1.1" xmlns="http://www.w3.org/2000/svg" width="200" height="200">
<path d="M0 0 C0.66 0 1.32 0 2 0 C3.14160156 1.55371094 3.14160156 1.55371094 4.390625 3.734375 C4.84969238 4.52996826 5.30875977 5.32556152 5.78173828 6.14526367 C6.50852783 7.43460815 6.50852783 7.43460815 7.25 8.75 C7.74870605 9.62309814 8.24741211 10.49619629 8.76123047 11.39575195 C11.84705198 16.83797322 14.74433767 22.33813311 17.47265625 27.96875 C21.24289173 35.45136569 25.52717837 42.67828627 29.6875 49.94921875 C30.368125 51.14998047 30.368125 51.14998047 31.0625 52.375 C31.44535156 53.04273438 31.82820312 53.71046875 32.22265625 54.3984375 C33 56 33 56 33 58 C33.61261185 58.0519754 34.22522369 58.10395081 34.85639954 58.15750122 C40.79543895 58.70053194 46.57371634 59.5675779 52.41796875 60.7421875 C53.70843864 60.99574509 53.70843864 60.99574509 55.02497864 61.25442505 C57.74669801 61.79027409 60.46709565 62.33251894 63.1875 62.875 C64.99015107 63.23089098 66.79288498 63.58636262 68.59570312 63.94140625 C73.73177942 64.95439123 78.86621178 65.97548807 84 67 C84.78183655 67.15601685 85.5636731 67.31203369 86.36920166 67.47277832 C90.57981963 68.31343263 94.79008329 69.15583974 99 70 C97.08739303 73.92023775 94.9399346 76.76607194 92 80 C91.34 80 90.68 80 90 80 C89.76667969 80.56203125 89.53335938 81.1240625 89.29296875 81.703125 C87.68062924 84.56734142 85.6806438 86.47252021 83.3125 88.75 C78.97668828 92.99847163 74.91825261 97.36758312 71 102 C66.67661714 107.11138861 62.37945436 112.04355975 57.1875 116.3125 C53.80834978 120.46402742 54.78133817 124.77040649 55.28027344 129.8578186 C55.66758006 133.21814067 56.09387549 136.57161296 56.53125 139.92578125 C56.76430847 141.76259712 56.76430847 141.76259712 57.0020752 143.63652039 C57.49669788 147.52912829 57.99798987 151.42083852 58.5 155.3125 C59.00152161 159.22206435 59.50042748 163.13195939 59.9979248 167.04203796 C60.30728883 169.47072003 60.61882749 171.89912628 60.93273926 174.32722473 C61.07288452 175.42233871 61.21302979 176.5174527 61.35742188 177.64575195 C61.54395325 179.09181572 61.54395325 179.09181572 61.73425293 180.5670929 C62 183 62 183 62 186 C54.22717617 183.65660088 47.15051066 180.32877844 39.875 176.75 C38.66781182 176.16151056 37.46028975 175.57370556 36.25244141 174.98657227 C33.89293241 173.83949528 31.53402461 172.69118063 29.17578125 171.54150391 C24.12940016 169.0920228 19.05791236 166.704032 13.953125 164.37890625 C12.08215451 163.50529172 10.23346964 162.58073112 8.421875 161.58984375 C4.56647507 159.55067814 2.08865026 158.55388905 -2.1875 159.8125 C-6.68434642 161.68748268 -11.02500758 163.94831502 -15.35864258 166.17138672 C-19.79417853 168.44122326 -24.2935366 170.48097329 -28.875 172.4375 C-35.22443373 175.14994711 -41.39707286 178.1232217 -47.50927734 181.33569336 C-51.59536144 183.44489817 -55.57451323 184.79172891 -60 186 C-59.4012998 180.29108032 -58.79660557 174.58281886 -58.1875 168.875 C-58.09762817 168.03176178 -58.00775635 167.18852356 -57.91516113 166.31973267 C-56.74709099 155.40249881 -55.51544039 144.50691012 -53.86401367 133.64990234 C-52.22301018 124.75011575 -52.22301018 124.75011575 -54.57421875 116.42578125 C-55.27160156 115.72839844 -55.96898437 115.03101562 -56.6875 114.3125 C-57.42484375 113.55582031 -58.1621875 112.79914063 -58.921875 112.01953125 C-59.60765625 111.35308594 -60.2934375 110.68664062 -61 110 C-62.2065625 108.7625 -62.2065625 108.7625 -63.4375 107.5 C-64.283125 106.675 -65.12875 105.85 -66 105 C-70.98811564 100.10653551 -75.81967434 95.16946415 -80.359375 89.85546875 C-81.98009509 88.02251151 -83.67738411 86.32342959 -85.4375 84.625 C-88 82 -88 82 -88 80 C-88.66 80 -89.32 80 -90 80 C-91.7265625 78.3203125 -91.7265625 78.3203125 -93.625 76.125 C-94.25664063 75.40570313 -94.88828125 74.68640625 -95.5390625 73.9453125 C-97 72 -97 72 -97 70 C-89.87231949 68.57745406 -82.74362625 67.16010204 -75.61364174 65.74914646 C-72.30198489 65.09363685 -68.99068568 64.43642623 -65.68017578 63.77514648 C-61.86317344 63.01361217 -58.0450021 62.25819664 -54.2265625 61.50390625 C-53.05324371 61.26845596 -51.87992493 61.03300568 -50.67105103 60.79042053 C-44.12459561 59.50408409 -37.65440591 58.50500767 -31 58 C-30.690625 56.824375 -30.690625 56.824375 -30.375 55.625 C-28.87760708 51.67732775 -26.91674684 48.38968199 -24.70166016 44.81103516 C-18.76664268 35.00676095 -13.61746585 24.69971329 -8.22998047 14.58496094 C-7.2432406 12.73298451 -6.2545847 10.88204175 -5.265625 9.03125 C-4.68586914 7.94392578 -4.10611328 6.85660156 -3.50878906 5.73632812 C-2 3 -2 3 0 0 Z " fill="#848283" transform="translate(99,7)"/>
<path d="M0 0 C0.33 0 0.66 0 1 0 C1.30285006 13.11800865 1.53301539 26.23516955 1.67355824 39.35597801 C1.74105651 45.45049963 1.83241071 51.54260883 1.98071289 57.63574219 C2.12325378 63.52988545 2.19995671 69.42172758 2.23340416 75.31746292 C2.25719921 77.55256972 2.30366336 79.78756789 2.37449074 82.02167892 C2.85447836 97.80757639 0.23772346 107.05980467 -10.27758884 118.97620678 C-13.23698393 122.45342748 -15.81726363 126.20223076 -18.4375 129.9375 C-23.49467814 136.95045537 -28.61274638 143.91693963 -33.75170898 150.87011719 C-38.40130558 157.16827206 -42.99610381 163.50457456 -47.5625 169.86328125 C-50.12681877 173.42928704 -52.70514 176.98485125 -55.3125 180.51953125 C-55.80363281 181.18702393 -56.29476562 181.8545166 -56.80078125 182.54223633 C-57.19652344 183.02329834 -57.59226563 183.50436035 -58 184 C-58.33 184 -58.66 184 -59 184 C-59.18225702 176.88389984 -58.65940404 170.06862313 -57.6875 163.0234375 C-57.55432373 162.01334625 -57.42114746 161.003255 -57.28393555 159.96255493 C-56.86206277 156.76585533 -56.43190957 153.57035785 -56 150.375 C-55.56855322 147.17244872 -55.139127 143.96969195 -54.71606445 140.76602173 C-54.45397464 138.78193605 -54.18715545 136.79846727 -53.91479492 134.81576538 C-52.24298074 125.30572892 -52.24298074 125.30572892 -54.57421875 116.42578125 C-55.27160156 115.72839844 -55.96898437 115.03101562 -56.6875 114.3125 C-57.42484375 113.55582031 -58.1621875 112.79914063 -58.921875 112.01953125 C-59.60765625 111.35308594 -60.2934375 110.68664062 -61 110 C-62.2065625 108.7625 -62.2065625 108.7625 -63.4375 107.5 C-64.283125 106.675 -65.12875 105.85 -66 105 C-70.98811564 100.10653551 -75.81967434 95.16946415 -80.359375 89.85546875 C-81.98009509 88.02251151 -83.67738411 86.32342959 -85.4375 84.625 C-88 82 -88 82 -88 80 C-88.66 80 -89.32 80 -90 80 C-91.7265625 78.3203125 -91.7265625 78.3203125 -93.625 76.125 C-94.25664063 75.40570313 -94.88828125 74.68640625 -95.5390625 73.9453125 C-97 72 -97 72 -97 70 C-89.87231949 68.57745406 -82.74362625 67.16010204 -75.61364174 65.74914646 C-72.30198489 65.09363685 -68.99068568 64.43642623 -65.68017578 63.77514648 C-61.86317344 63.01361217 -58.0450021 62.25819664 -54.2265625 61.50390625 C-53.05324371 61.26845596 -51.87992493 61.03300568 -50.67105103 60.79042053 C-44.12459561 59.50408409 -37.65440591 58.50500767 -31 58 C-30.690625 56.824375 -30.690625 56.824375 -30.375 55.625 C-28.87760708 51.67732775 -26.91674684 48.38968199 -24.70166016 44.81103516 C-18.76664268 35.00676095 -13.61746585 24.69971329 -8.22998047 14.58496094 C-7.2432406 12.73298451 -6.2545847 10.88204175 -5.265625 9.03125 C-4.68586914 7.94392578 -4.10611328 6.85660156 -3.50878906 5.73632812 C-2 3 -2 3 0 0 Z " fill="#FEBA02" transform="translate(99,7)"/>
<path d="M0 0 C3.9830367 2.90312887 6.74934758 6.08936706 9.5 10.125 C10.3795243 11.3845925 11.25976833 12.64368265 12.140625 13.90234375 C12.60404297 14.56862793 13.06746094 15.23491211 13.54492188 15.92138672 C16.07591828 19.53697454 18.66366005 23.11139365 21.25 26.6875 C21.79462891 27.4417627 22.33925781 28.19602539 22.90039062 28.97314453 C26.90170193 34.50580752 30.94327676 40.00788149 35 45.5 C39.69316818 51.85593176 44.36568458 58.22599734 49 64.625 C49.7734375 65.68944336 49.7734375 65.68944336 50.5625 66.77539062 C54.16939195 71.76774238 57.61495237 76.85490765 61 82 C56.35635437 81.43224466 52.78471033 80.15140616 48.59765625 78.0859375 C48.0025676 77.79529419 47.40747894 77.50465088 46.7943573 77.2052002 C44.88026601 76.26869402 42.97149895 75.32183618 41.0625 74.375 C39.74686173 73.7297286 38.43077931 73.08536199 37.11425781 72.44189453 C34.54844682 71.18763894 31.98397803 69.93070807 29.42041016 68.671875 C24.27369514 66.15619303 19.09741965 63.71512588 13.8828125 61.34375 C12.03765302 60.48367566 10.21563088 59.57086188 8.4296875 58.59375 C4.57108243 56.55326732 2.09229735 55.55281559 -2.1875 56.8125 C-6.68434642 58.68748268 -11.02500758 60.94831502 -15.35864258 63.17138672 C-19.79417853 65.44122326 -24.2935366 67.48097329 -28.875 69.4375 C-35.22443373 72.14994711 -41.39707286 75.1232217 -47.50927734 78.33569336 C-51.63324907 80.46445547 -55.529009 81.86642828 -60 83 C-60 81 -60 81 -57.78125 78.76171875 C-56.8634375 77.85035156 -55.945625 76.93898438 -55 76 C-53.45638854 73.96993352 -51.959299 71.90399532 -50.5 69.8125 C-49.6203568 68.56210224 -48.74011886 67.31212273 -47.859375 66.0625 C-47.39595703 65.4025 -46.93253906 64.7425 -46.45507812 64.0625 C-43.91347357 60.45990348 -41.33204518 56.88617199 -38.75 53.3125 C-38.20537109 52.55815674 -37.66074219 51.80381348 -37.09960938 51.02661133 C-32.52313673 44.69933155 -27.89150809 38.41360756 -23.2512207 32.13305664 C-15.39982894 21.49522712 -7.67808433 10.76340629 0 0 Z " fill="#8F5AE5" transform="translate(99,110)"/>
<path d="M0 0 C6.78069704 8.4758713 11.60666654 18.07682351 16.3671875 27.79296875 C20.20056711 35.3221665 24.49225862 42.61725755 28.6875 49.94921875 C29.368125 51.14998047 29.368125 51.14998047 30.0625 52.375 C30.63677734 53.37660156 30.63677734 53.37660156 31.22265625 54.3984375 C32 56 32 56 32 58 C32.61220398 58.0519754 33.22440796 58.10395081 33.85516357 58.15750122 C39.8054137 58.70176176 45.59687202 59.56977399 51.453125 60.7421875 C52.7471524 60.99574509 52.7471524 60.99574509 54.06732178 61.25442505 C56.79575101 61.79030598 59.52284606 62.332671 62.25 62.875 C64.06111995 63.23086577 65.87231742 63.58633729 67.68359375 63.94140625 C77.47669489 65.86755651 87.25032294 67.86355967 97 70 C94.28304272 72.21989677 92.05386429 73.48361711 88.671875 74.390625 C84.42183377 75.58760077 80.21638963 76.87337255 76.015625 78.234375 C74.76160889 78.64010742 73.50759277 79.04583984 72.21557617 79.46386719 C70.89371745 79.89257812 69.57185872 80.32128906 68.25 80.75 C65.4806911 81.64652143 62.71110024 82.54216902 59.94140625 83.4375 C59.25875198 83.65823181 58.57609772 83.87896362 57.87275696 84.10638428 C51.10249279 86.29358992 44.32058866 88.44361206 37.53662109 90.58789062 C33.37028767 91.90963486 29.21453223 93.25493855 25.07421875 94.65625 C23.88372925 95.0589209 23.88372925 95.0589209 22.66918945 95.46972656 C21.22214417 95.96187903 19.77646197 96.45807515 18.33276367 96.95996094 C12.2534427 99.03223712 6.31277985 100.42180504 0 102 C0 68.34 0 34.68 0 0 Z " fill="#981039" transform="translate(100,7)"/>
<path d="M0 0 C5.62789318 5.62789318 5.62789318 5.62789318 7.65625 8.35546875 C8.11443115 8.96825684 8.5726123 9.58104492 9.04467773 10.21240234 C9.76506226 11.19007568 9.76506226 11.19007568 10.5 12.1875 C11.27549194 13.23091553 11.27549194 13.23091553 12.06665039 14.29541016 C18.12479231 22.47185354 24.06206136 30.73613253 30 39 C32.1440214 41.98047526 34.28999026 44.95953727 36.4375 47.9375 C36.96384033 48.66783447 37.49018066 49.39816895 38.0324707 50.15063477 C42.77299066 56.71470776 47.58106605 63.22838619 52.41967773 69.72045898 C55.13929127 73.3875355 57.75615672 77.01359757 60 81 C55.35635437 80.43224466 51.78471033 79.15140616 47.59765625 77.0859375 C46.70509125 76.65004051 46.70509125 76.65004051 45.79449463 76.20533752 C43.88032466 75.26884859 41.97150142 74.32197317 40.0625 73.375 C38.74611738 72.729021 37.42930256 72.08392202 36.11206055 71.43969727 C34.16701391 70.48840591 32.2221881 69.53670744 30.27876282 68.58210754 C24.63646264 65.81168302 18.95122052 63.1478915 13.23828125 60.52734375 C8.78839244 58.42854215 4.40058892 56.20029446 0 54 C0 36.18 0 18.36 0 0 Z " fill="#2D056B" transform="translate(100,111)"/>
<path d="M0 0 C-1.66595791 3.68827045 -3.9456293 6.86520734 -6.3125 10.125 C-6.74981445 10.73190674 -7.18712891 11.33881348 -7.63769531 11.96411133 C-8.58940771 13.28410516 -9.54242238 14.60316081 -10.49658203 15.92138672 C-12.02124807 18.0293774 -13.54046434 20.14120418 -15.05859375 22.25390625 C-21.23171978 30.83538189 -27.467899 39.36788788 -33.75097656 47.86914062 C-38.40083466 54.16760837 -42.99586644 60.50424402 -47.5625 66.86328125 C-50.12681877 70.42928704 -52.70514 73.98485125 -55.3125 77.51953125 C-56.04919922 78.52077026 -56.04919922 78.52077026 -56.80078125 79.54223633 C-57.39439453 80.26382935 -57.39439453 80.26382935 -58 81 C-58.33 81 -58.66 81 -59 81 C-59.18184898 73.89496071 -58.66104036 67.09237052 -57.6875 60.05859375 C-57.55432373 59.05087418 -57.42114746 58.0431546 -57.28393555 57.00489807 C-56.86208249 53.81491238 -56.43201189 50.62612468 -56 47.4375 C-55.43072308 43.22873511 -54.8694601 39.01900402 -54.3125 34.80859375 C-54.18125732 33.85834824 -54.05001465 32.90810272 -53.91479492 31.92906189 C-53.16087022 26.23016102 -52.87668938 20.74899057 -53 15 C-52.3920459 14.89736847 -51.7840918 14.79473694 -51.15771484 14.68899536 C-43.02914351 13.27639998 -35.3096021 10.64865187 -27.5 8.0625 C-24.802743 7.17636853 -22.10457456 6.293031 -19.40625 5.41015625 C-18.76292725 5.19944489 -18.11960449 4.98873352 -17.45678711 4.77163696 C-2.84984084 0 -2.84984084 0 0 0 Z " fill="#FEE151" transform="translate(99,110)"/>
<path d="M0 0 C1.70101269 1.94140625 3.04327869 3.7305436 4.4375 5.875 C5.30400094 7.14719009 6.17261398 8.41794335 7.04296875 9.6875 C7.51138184 10.37714844 7.97979492 11.06679687 8.46240234 11.77734375 C11.29874675 15.87738813 14.28204171 19.86976957 17.25 23.875 C18.11709595 25.0503833 18.11709595 25.0503833 19.00170898 26.24951172 C19.56317627 27.01021973 20.12464355 27.77092773 20.703125 28.5546875 C21.52006836 29.66215332 21.52006836 29.66215332 22.35351562 30.79199219 C23.47546871 32.29658052 24.61016945 33.7917271 25.75585938 35.27832031 C26.30564453 35.99342773 26.85542969 36.70853516 27.421875 37.4453125 C27.9178418 38.08227051 28.41380859 38.71922852 28.92480469 39.37548828 C30 41 30 41 30 43 C24.07515393 41.79738875 18.4190493 40.25920733 12.72265625 38.2421875 C11.15406164 37.69732137 9.58545776 37.15248191 8.0168457 36.60766602 C7.20800934 36.3246463 6.39917297 36.04162659 5.56582642 35.75003052 C-9.59181504 30.45172073 -24.80164974 25.46923706 -40.18261719 20.85546875 C-45.51796164 19.23544735 -50.82617489 17.52797051 -56.1315918 15.81274414 C-59.73127966 14.66135374 -63.27195631 13.63720983 -67 13 C-67 12.34 -67 11.68 -67 11 C-59.80233226 9.58202544 -52.60447968 8.16499319 -45.40639305 6.74914646 C-42.06364416 6.09160524 -38.72095854 5.43374592 -35.37841797 4.77514648 C-31.53111336 4.01710532 -27.68353265 3.26047138 -23.8359375 2.50390625 C-22.64197357 2.26845596 -21.44800964 2.03300568 -20.21786499 1.79042053 C-19.09715607 1.57026779 -17.97644714 1.35011505 -16.82177734 1.12329102 C-15.84026703 0.93009781 -14.85875671 0.7369046 -13.84750366 0.53785706 C-3.6079786 -1.39625839 -3.6079786 -1.39625839 0 0 Z " fill="#FFE14D" transform="translate(69,66)"/>
<path d="M0 0 C6.58100849 1.94867665 13.12941655 3.97880509 19.65625 6.1015625 C20.95967346 6.5244606 20.95967346 6.5244606 22.28942871 6.9559021 C24.10459542 7.5452284 25.91957604 8.13512813 27.734375 8.72558594 C30.52018585 9.63156468 33.306934 10.53461852 36.09375 11.4375 C37.86464034 12.01284539 39.63547571 12.58836002 41.40625 13.1640625 C42.23950806 13.43384918 43.07276611 13.70363586 43.93127441 13.9815979 C49.77065678 15.88532839 49.77065678 15.88532839 52 17 C52.49952698 19.08955383 52.49952698 19.08955383 52.85375977 21.88012695 C53.05890953 23.44359612 53.05890953 23.44359612 53.26820374 25.03865051 C53.40786057 26.17702866 53.5475174 27.3154068 53.69140625 28.48828125 C53.841577 29.65699265 53.99174774 30.82570404 54.14646912 32.02983093 C54.46414402 34.51519426 54.77740839 37.00112459 55.08666992 39.48754883 C55.55586772 43.25918654 56.0373713 47.02907892 56.52148438 50.79882812 C56.82885769 53.21605278 57.13551995 55.63336797 57.44140625 58.05078125 C57.65392784 59.72494865 57.65392784 59.72494865 57.8707428 61.43293762 C58.76127542 68.6109964 59.45499594 75.78753444 60 83 C57.47007683 81.73503841 56.81475838 80.39020166 55.296875 78.01171875 C52.1208854 73.14090562 48.72371534 68.47377727 45.25 63.8125 C41.1197792 58.24059836 37.01017534 52.65899927 33 47 C29.1245904 41.53682151 25.16837528 36.13675253 21.1875 30.75 C16.33724269 24.17898473 11.49374444 17.6033036 6.6875 11 C6.13022217 10.24041992 5.57294434 9.48083984 4.9987793 8.69824219 C4.48742432 7.99344727 3.97606934 7.28865234 3.44921875 6.5625 C2.99893311 5.94503906 2.54864746 5.32757813 2.0847168 4.69140625 C1 3 1 3 0 0 Z " fill="#BEBEBF" transform="translate(101,110)"/>
<path d="M0 0 C0.80530151 0.11651917 1.61060303 0.23303833 2.44030762 0.35308838 C3.77197968 0.53712723 3.77197968 0.53712723 5.1305542 0.72488403 C6.46627472 0.94738327 6.46627472 0.94738327 7.82897949 1.17437744 C8.61327332 1.30393829 9.39756714 1.43349915 10.20562744 1.56698608 C12.57138105 1.98630547 14.92624542 2.44492531 17.28210449 2.91656494 C18.5761319 3.17012253 18.5761319 3.17012253 19.89630127 3.42880249 C22.6247305 3.96468342 25.35182555 4.50704845 28.07897949 5.04937744 C29.89009944 5.40524321 31.70129691 5.76071473 33.51257324 6.11578369 C43.30567438 8.04193396 53.07930243 10.03793711 62.82897949 12.17437744 C60.11202221 14.39427421 57.88284378 15.65799455 54.50085449 16.56500244 C50.25081327 17.76197821 46.04536912 19.04774999 41.84460449 20.40875244 C40.59058838 20.81448486 39.33657227 21.22021729 38.04455566 21.63824463 C36.72269694 22.06695557 35.40083822 22.4956665 34.07897949 22.92437744 C31.30967059 23.82089887 28.54007973 24.71654646 25.77038574 25.61187744 C25.08773148 25.83260925 24.40507721 26.05334106 23.70173645 26.28076172 C16.93213328 28.46775382 10.15058923 30.61658275 3.36779785 32.76226807 C-2.39457509 34.59155816 -8.13028838 36.49110662 -13.85852051 38.42437744 C-20.23873397 40.57705964 -26.63665841 42.53359048 -33.17102051 44.17437744 C-31.50506284 40.48610753 -29.22539361 37.30918182 -26.85852051 34.04937744 C-26.42700684 33.45044678 -25.99549316 32.85151611 -25.55090332 32.23443604 C-24.60507011 30.92248461 -23.65790535 29.61149238 -22.70959473 28.30133057 C-21.07971124 26.04814984 -19.45508983 23.79123943 -17.83117676 21.53375244 C-16.69463462 19.95550024 -15.5579181 18.37737361 -14.42102051 16.79937744 C-13.89081299 16.06316162 -13.36060547 15.3269458 -12.81433105 14.56842041 C-11.78151353 13.1381671 -10.73845933 11.71524333 -9.68469238 10.300354 C-8.12696273 8.18021503 -8.12696273 8.18021503 -6.79797363 5.82183838 C-3.36025413 0.26989727 -3.36025413 0.26989727 0 0 Z " fill="#E43159" transform="translate(134.1710205078125,64.82562255859375)"/>
</svg>
