<svg xmlns="http://www.w3.org/2000/svg" width="256" height="256" viewBox="0 0 256 256" version="1.1">
	<path d="M 0.479 18.034 C -0.088 18.951, 16.049 47.569, 48.950 103.993 C 54.240 113.064, 59.239 120.615, 60.059 120.773 C 61.686 121.086, 79 92.471, 79 89.470 C 79 88.549, 74.668 80.377, 69.374 71.310 C 64.080 62.243, 59.693 54.077, 59.624 53.162 C 59.424 50.486, 107.122 50.122, 109.780 52.780 C 110.778 53.778, 115.789 61.886, 120.914 70.798 L 130.234 87 146.617 87 C 160.298 87, 163 86.760, 163 85.543 C 163 84.271, 150.986 62.971, 130.543 28 L 124.405 17.500 62.766 17.242 C 20.556 17.066, 0.923 17.316, 0.479 18.034 M 136 18.431 C 136 19.226, 139.983 26.767, 144.851 35.189 L 153.701 50.500 175.351 50.770 C 191.205 50.967, 197 51.356, 197 52.223 C 197 53.420, 181.395 81.085, 175.280 90.730 L 171.964 95.960 151.265 96.230 L 130.566 96.500 122.681 110.181 C 118.345 117.706, 115.094 124.343, 115.457 124.931 C 115.908 125.660, 128.491 126, 155.012 126 L 193.907 126 195.520 123.750 C 196.407 122.513, 201.651 113.625, 207.173 104 C 212.695 94.375, 225.771 71.729, 236.230 53.676 C 246.689 35.623, 255.304 20.098, 255.373 19.176 C 255.490 17.628, 250.937 17.480, 195.750 17.242 C 144.171 17.020, 136 17.182, 136 18.431 M 104.176 65.309 C 101.339 68.791, 66 130.981, 66 132.491 C 66 133.726, 73.355 146.647, 112.925 214.923 C 120.391 227.806, 127.038 238.523, 127.696 238.739 C 129.238 239.244, 128.934 239.742, 160.955 184.257 C 177.269 155.989, 187.987 136.409, 187.641 135.507 C 186.868 133.492, 153.386 133.259, 150.690 135.250 C 149.759 135.938, 144.587 144.150, 139.197 153.500 C 133.806 162.850, 128.763 170.500, 127.990 170.500 C 126.501 170.500, 103.063 130.573, 103.042 128 C 103.035 127.175, 107.298 119.143, 112.515 110.151 C 117.732 101.158, 122 93.011, 122 92.046 C 122 89.855, 107.929 65.200, 106.323 64.576 C 105.676 64.325, 104.710 64.655, 104.176 65.309" stroke="none" fill="#007BFF" fill-rule="evenodd"/>
</svg>
