<svg xmlns="http://www.w3.org/2000/svg" viewBox="0 0 49 42">
  <path fill="#009CC9" fill-rule="evenodd" d="M36.0807834,35.9281067 L26.2741496,18.1275733 L28.2838726,14.88928 L42.1695051,39.6084267 L5.96735435,39.6084267 L3.61539053,35.9281067 L36.0807834,35.9281067 Z M9.35885602,29.9824 L9.27141121,30.12352 L30.1073983,30.09216 L32.0055538,33.5365333 L3.53096106,33.5365333 L21.9991539,2.39157333 L26.2628421,2.39157333 L9.35885602,29.9824 Z M20.3241335,27.7170133 L24.8124644,20.4810667 L28.791957,27.7028267 L20.3241335,27.7170133 Z M17.4791619,27.72 L13.573545,27.72672 L28.3803634,3.55712 L46.2371964,34.4750933 L44.1995815,38.29056 L28.4663005,10.2823467 L28.3871479,10.1434667 L17.4791619,27.72 Z M29.7892802,1.16554667 L29.1153521,0 L20.6090829,0 L0,34.75584 L4.63155951,42 L44.9571853,42 L48.9758773,34.4765867 L49,34.4317867 L29.7892802,1.16554667 L29.7892802,1.16554667 Z"/>
</svg>
