<svg xmlns="http://www.w3.org/2000/svg" width="800" height="800" preserveAspectRatio="xMidYMid" viewBox="-80.5 0 417 417"><path fill="#d33833" d="M250.7 169.3c0 69.4-55 125.8-123 125.8s-123-56.4-123-125.8 55-125.8 123-125.8 123 56.3 123 125.8"/><path fill="#ef3d3a" d="M9.7 200.4s-9-131.1 112-135l-8.4-14-65.6 22L29 95l-16.4 31.3-9.3 36.5L6 187.2"/><path fill="#231f20" d="M43.5 83.4c-21.6 22.2-35 52.6-35 86.4S22 234 43.5 256a117 117 0 0 0 168.4 0c21.6-22.1 35-52.6 35-86.3 0-33.8-13.4-64.2-35-86.4a117.4 117.4 0 0 0-168.5 0m-5.4 178C15 237.9.9 205.5.9 169.8S15 101.6 38 78a125.3 125.3 0 0 1 179.4 0c23 23.4 37.1 55.9 37.1 91.7a131 131 0 0 1-37.1 91.6 125 125 0 0 1-179.4 0"/><path fill="#f0d6b7" d="m179.5 170-18.8 2.8-25.3 2.8-16.3.4-16-.5-12.2-3.7L80 160l-8.5-23.9-1.8-5.1-11.3-3.8-6.5-10.8-4.7-15.5 5.2-13.6 12.2-4.2 9.8 4.6L79.2 98l5.6-.9 2-2.3-2-10.9-.5-13.6 2.8-18.7V40.9l8.5-13.7 15-10.8 26.1-11.2 29.1 4.2 25.3 18.3 11.7 18.7 7.6 13.6 1.8 33.8-5.6 29-10.3 25.8-9.8 13.8"/><path fill="#335061" d="m163.6 251-67 2.8V265l5.7 39.4-2.8 3.3-46.8-16-3.3-5.6-4.6-53-11-31.8-2.4-7.5L68.9 168l11.7-4.7L90.9 176l9 8 10.2 3.2 4.7 1.4 5.7 24.4 4.2 5.2 10.8-3.8L128 229l40.7 19.3z"/><path fill="#6d6b6d" d="m52.5 87.5 12.2-4.2 9.8 4.6 4.7 10.3 5.6-.9 1.4-5.6-2.8-10.8L86.2 55l-2.4-14 8.5-9.8 18.2-14.5-5.1-7-25.8 12.6-10.8 8.5-6 13-9.4 12.8-2.8 15z"/><path fill="#dcd9d8" d="M71.7 43.5s7-17.4 35.2-25.8c28-8.5 1.4-6 1.4-6L77.8 23.2 66 35l-5.2 9.4zm-14 40.7s-9.9-32.8 27.6-37.5L84 41.1l-25.8 6-7.5 24.4 1.9 16z"/><path fill="#f7e4cd" d="m72.6 127.8 6.2-6s2.8.3 3.3 3.6 1.8 32.9 22 48.7c1.9 1.5-15-2.3-15-2.3l-15-23.5M159 119s1-14.2 5-13.1c3.8 1 3.8 5 3.8 5s-9.3 5.9-8.8 8m38.9-52s-7.8 1.7-8.5 8.5c-.7 6.9 8.5 1.4 9.8 1m-58-9s-10.3 1.5-10.3 8 11.7 6 15 3.3M77.4 97.8S59.6 87 57.7 97.3s-6 17.8 2.8 28.6l-6-1.9-5.7-14.5-1.9-14 10.9-11.3 12.2 1 7 5.6zm8.4-29.5s8-41.3 48.3-49.2c33-6.6 50.6 1.3 57.1 8.9 0 0-29.6-35.1-57.6-24.4-28.1 10.8-48.8 30.4-48.3 43 .8 21.7.5 21.7.5 21.7m108.7-35.7s-13.6-.5-14.1 11.8c0 0 0 1.8.9 3.7 0 0 10.8-12.2 17.3-5.6"/><path fill="#f7e4cd" d="M135 49.4s-2.3-18.6-18.2-7.8c-10.3 7-9.3 16.8-7.6 18.7 2 2 1.4 5.7 2.8 3.1s1-11 6.2-13.4c5-2.4 13.6-5 16.8-.6"/><path fill="#49728b" d="m91 176-44 19.7s18.2 72.6 8.9 95.1l-6.6-2.4-.5-27.6-12.2-52.4-5.1-14.5 45.9-31zm4.5 40.2 6.2 7.7v28h-7.4l-1-22c0-2.4 1-10.8 1-10.8m1.4 37.1-21.2.9 6 4.3 15 2.3"/><path fill="#335061" d="m167.8 251.5 17.4-.5 4.2 43.1-17.7 2.4z"/><path fill="#335061" d="m172.5 251.5 26.1-1.4s10.9-27.1 10.9-28.5 9.3-39.4 9.3-39.4l-21.1-22-4.3-3.8-11.2 11.2v43.6z"/><path fill="#49728b" d="m184.2 248.3-16.4 3.2 2.4 13.1c6 2.8 16.3-4.6 16.3-4.6m-1.8-93.8 32.8 24.4.9-11.2-24.8-23z"/><path fill="#fff" d="m112 343.8-9.8-39.4-4.9-29-.8-21.6 44-2.4h27.3l-2.5 49.3 4.3 38-.5 7-35.6 2.8z"/><path fill="#dcd9d8" d="M161.7 251s-2.3 48.8 4.7 83.5c0 0-14 9-34.6 11.2l39.4-1.4 4.6-2.8-5.6-76.8-1.5-16.4"/><path fill="#fff" d="m190.1 290.4 18.3-5.1 34.6-2 5.2-15.9-9.4-27.7-10.8-1.4-15 4.7-14.3 7-7.6-1.3-6 2.3"/><path fill="#dcd9d8" d="M189.8 281s12.2-5.7 14.1-5.2l-5.2-25.8 6.1-2.3s4.3 24.4 4.3 27.2c0 0 26.2 1.3 28.5 1.3 0 0 5.7-10.8 4.3-22l5.2 15 .5 8.4-7.6 11.2-8.4 2-14.1-.6-4.7-6-16.3 2.4-5.2 1.8"/><path fill="#fff" d="M171.4 247.8 161 221.6 150.2 206s2.4-6.6 5.7-6.6h10.8l10.3 3.8-.9 17.4z"/><path fill="#dcd9d8" d="M173.4 238.8s-13-25.3-13-29c0 0 2.3-5.7 5.6-4.3s10.3 5.2 10.3 5.2v-9l-16-3.2-10.8 1.3 18.3 43.3 3.8.5"/><path fill="#fff" d="m116 177-12.9-1.4-12.2-3.7v4.2l6 6.6 18.7 8.4"/><path fill="#dcd9d8" d="M95.2 178.4s14.4 6 19.2 4.7l.5 5.6-13.1-2.8-8-5.6z"/><path fill="#d33833" d="M190.1 201.1q-12-.3-21.4-3c.4-2.5-.4-5 .3-6.9 1.8-1.3 4.6-1.3 7.3-1.6-2.3-1-5.5-1.6-8.1-.9-.1-1.8-1-2.9-1.4-4.2 4.5-1.6 15-12 21-8.7 2.8 1.7 4 11 4.2 15.7.2 3.8-.4 7.5-1.9 9.6"/><path stroke="#d33833" stroke-width="2" d="M190.1 201.1q-12-.3-21.4-3c.4-2.5-.4-5 .3-6.9 1.8-1.3 4.6-1.3 7.3-1.6-2.3-1-5.5-1.6-8.1-.9-.1-1.8-1-2.9-1.4-4.2 4.5-1.6 15-12 21-8.7 2.8 1.7 4 11 4.2 15.7.2 3.8-.4 7.5-1.9 9.6Z"/><path fill="#d33833" d="M152.1 188.1v1.8c-2.6 1.6-6.5 1.6-9.3 3a26 26 0 0 1 10 2.5l-.3 4.5c-4.6 3.1-8.7 7.8-14 10.8-2.7 1.3-11.5 5-14.2 4.2-1.5-.4-1.7-2.3-2.3-4-1.2-3.8-4.2-10-4.5-15.7-.3-7.3-1.1-19.5 6.7-18 6.4 1.2 13.7 4 18.6 6.8 3 1.7 4.7 3.7 9.3 4.1"/><path stroke="#d33833" stroke-width="2" d="M152.1 188.1v1.8c-2.6 1.6-6.5 1.6-9.3 3a26 26 0 0 1 10 2.5l-.3 4.5c-4.6 3.1-8.7 7.8-14 10.8-2.7 1.3-11.5 5-14.2 4.2-1.5-.4-1.7-2.3-2.3-4-1.2-3.8-4.2-10-4.5-15.7-.3-7.3-1.1-19.5 6.7-18 6.4 1.2 13.7 4 18.6 6.8 3 1.7 4.7 3.7 9.3 4.1Z"/><path fill="#d33833" d="M156.6 196.8c-.7-4-1.5-5.1-1.2-8.6 10.6-7 12.5 12.1 1.2 8.6"/><path stroke="#d33833" stroke-width="2" d="M156.6 196.8c-.7-4-1.5-5.1-1.2-8.6 10.6-7 12.5 12.1 1.2 8.6Z"/><path fill="#ef3d3a" d="M171.9 200s-3.3-4.7-1-6.1 4.7 0 6.1-2.4 0-3.8.5-6.5 2.8-3.3 5.2-3.8 8.9-1.4 9.8.9l-2.8-8.5-5.6-1.8-17.8 10.3-.9 5.1v10.4m-42.8 17.8-1.7-22c-1-10.8 2.5-9 12-9 1.5 0 9 1.7 9.5 2.8 2.6 5.3-4.3 4.1 3 8 6 3.3 16.8-2 14.4-9.4-1.4-1.6-7.2-.4-9.3-1.5l-11-5.7c-4.7-2.4-15.4-6-20.3-2.6-12.6 8.6.8 30 5.2 39"/><path fill="#231f20" d="M135 49.4c-12.8-3-19.1 5.4-23 14-3.4-.8-2-5.6-1.2-8 2.3-6.2 11.5-14.6 19-13.4 3.3.4 7.6 3.3 5.2 7.4M197.3 64h.6c2.8 6 5.3 12.3 9 17.7-2.5 5.7-18.5 10.7-18.3.6 3.5-1.5 9.5-.3 12.5-2.3-1.8-4.9-4.2-9-3.8-16m-55.8.2c2.8 5 3.7 10.3 7.5 14 1.8 1.8 5.2 3.9 3.5 8.6a11 11 0 0 1-5 4c-6 1.9-20.2.5-15.4-7.2 5 .2 11.8 3.3 15.5-.4-2.8-4.5-8-13.6-6.1-19m53.5 51c-9.2 5.9-19.4 12.3-34.5 10.8-3.1-2.8-4.4-9-1.2-13 1.5 2.7.6 7.9 5.1 8.6 8.5 1.5 18.5-5.2 24.6-7.5 3.8-6.4-.3-8.7-3.7-12.9-7-8.4-16.4-19-16.1-31.5 2.9-2.1 3 3.1 3.5 4 3.6 8.6 12.9 19.6 19.5 27 1.7 1.7 4.4 3.5 4.7 4.7.9 3.4-2.3 7.5-2 9.8M74.1 109c-2.9-1.6-3.6-8.8-7-9-4.8-.3-3.9 9.3-3.9 15-3.3-3-3.9-12.3-1.5-17-2.8-1.5-4 1.4-5.5 2.4 2-14.4 21.1-6.6 18 8.6m126.5 12.3c-4.2 8-10.3 17-22.8 17.3a28 28 0 0 1 0-8.2c9.6-1 15.6-5.9 22.8-9.1m-59.9 5.2c8 4.2 22.6 4.7 33.5 4.4q.8 3.7.6 8.2c-14 .6-30.4-2.9-34.1-12.6m-1.5 7.8c5.6 13.8 24.5 12.3 40.5 11.9-.7 1.7-2.2 4-4.2 4.6-5.1 2.1-19.2 3.7-26.4 0-4.4-2.5-7.4-8-9.9-11-1-1.6-7-5.4 0-5.5"/><path fill="#81b0c4" d="M194.3 210.7c-6.5 11-12.7 22.5-20.4 32.2a158 158 0 0 0 5.1-37.4c6.7-3.2 12.5.7 15.3 5.2"/><path fill="#231f20" d="M229.1 250.5c-7.2 1.5-12.3 8.6-19.4 8q6.2-7.9 19.4-8m3.2 11.4c-6 .6-13 1.5-18.9 1 3-4.3 13.8-2.7 18.9-1m2 9.8c-6.6 0-14.8 0-21.2-.5 3.8-4 17-1.5 21.3.5"/><path fill="#dcd9d8" d="M181.8 298.5c1 8.3 4.2 16.7 3.8 25.9-3.6 1.2-5.7 2.2-10.7 2.2-.3-7.7-1.4-19.6-1-27 2.3.2 5.9-1.7 7.9-1.1"/><path fill="#f0d6b7" d="M171 175.4c-3.3 2.2-6 4.9-9.4 7.3-7.1.4-11-.5-16.1-4.6 0-.3.6-.2.6-.6 7.6 3.4 17.3-1.4 25-2"/><path fill="#81b0c4" d="M131.2 227.3c2-9 10.3-13.8 17.7-18.7 7.7 9.7 12.3 22.2 17.5 34.3a176 176 0 0 1-35.2-15.6"/><path fill="#231f20" d="M173.8 299.7c-.3 7.4.7 19.2 1.1 27 5 0 7-1 10.8-2.2.3-9.2-3-17.6-4-26-1.9-.6-5.5 1.3-7.9 1.2m-76.6-42.1a389 389 0 0 0 16.6 81.4c19.2 5.8 42.2 6.3 59.1 1-3-14.8-1.7-33-3.5-49-1.4-12-.7-24-2.6-36.2-20.5-4.3-49.5-1-69.6 2.8m74.5-2.6c-.2 12.8.6 25.5 1.5 38.3 5-.7 8.3-1.2 12.8-2.3-1.4-12.3-1.2-26.3-4.3-37.2-3.5.1-6.6 0-10 1.2m24.9-2c-2.4-.6-5.1 0-7.3 0 1.1 10.3 3.6 21.9 4.5 32.9 3.5 0 5.3-1.6 8.2-2.1.2-9.6-.8-23-5.4-30.9m37.8 34.6c7.3-1.8 11.9-10.8 9.8-20-1.4-6.1-3.8-17.9-6.5-21.8-1.8-2.9-7.1-6.8-11.4-4-6.8 4.3-18.8 5.6-23.8 10.8 2.5 8.4 3.3 19.7 4.3 30.2 8.5.5 19-2.4 26 .7-4.9 1.6-11.2 1.6-15.5 4a33 33 0 0 0 17 0m-68-44.5c-5.2-12.1-9.8-24.6-17.5-34.3-7.4 5-15.5 9.7-17.7 18.7a181 181 0 0 0 35.2 15.6m12.7-37.4a162 162 0 0 1-5 37.4c7.6-9.8 13.8-21.1 20.3-32.2-2.8-4.5-8.6-8.4-15.3-5.2m-14.4-5c-2.9-.4-5.3 3.3-9.1 1.7l-2.6 3c8.3 10.1 12.2 24.4 18.7 36.2 3.4-11.4 3-23.8 3.8-36.2-4.7.2-7.4-4.5-10.8-4.8m-9.2-12.2c-.3 3.5.5 4.6 1.2 8.6 11.3 3.5 9.4-15.6-1.2-8.6m-12.6-4.1a68 68 0 0 0-18.6-6.8c-7.8-1.5-7 10.7-6.7 18 .3 5.7 3.3 11.8 4.5 15.6.6 1.8.8 3.7 2.3 4.1 2.7.6 11.6-2.9 14.1-4.2 5.4-3 9.5-7.6 14.1-10.8l.2-4.5a24 24 0 0 0-10-2.5c2.8-1.4 6.8-1.4 9.3-3l.1-1.8c-4.6-.5-6.2-2.5-9.3-4.1m-46.6-8.5c-4.1 4.2 11.4 9.8 16.2 10 0-2.5 1.5-5 1.2-6.9-5.8-1-13.5-.3-17.4-3m50 1.8c0 .4-.5.3-.6.6 5.2 4 9 5 16.1 4.6 3.2-2.3 6-5 9.5-7.3-7.8.7-17.5 5.5-25 2.1m45.8 14c-.2-4.7-1.4-14-4.3-15.8-6-3.4-16.4 7-20.9 8.7.5 1.3 1.3 2.4 1.4 4.2 2.7-.7 5.8-.2 8.1 1-2.7.2-5.5.2-7.3 1.5-.6 1.9.2 4.4-.3 7a92 92 0 0 0 21.4 3c1.5-2 2.1-5.8 1.9-9.7M89.3 179.6c-1.3-.9-10-12.1-11.1-11.6A183 183 0 0 0 35 194.9c12.4 26.7 17.5 59.3 18.4 90.8 14.2 6.6 26.7 16.2 46 17.2-2.3-15.7-4.2-30-5.5-44.8-4.9-2.1-11.8 0-16.4-.6 0-5.5 7-2.4 7.5-6 .4-2.8-3.8-3-2.4-7.4 3.5 1.3 5.4 4.2 9.2 5.3 3.5-7.6 0-21 .5-27.3 0-1.2.6-6.6 3.3-5.7 2.3.8-.1 14.4 0 20.3.3 5.6-.6 10.9 1.6 14.3 18.7-2.5 37.6-4.1 57.9-4.7-4.5-2-9.7-3.7-15.5-7-3.2-1.8-13-5.4-13.9-8.4-1.5-4.8 3.8-7.2 4.7-11.3-9.4 5.1-11.2-5-13.5-12a99 99 0 0 1-3.7-15c-8.2-4.2-17-8-23.9-13m94.5-10.3c13-6.3 15.3 23.5 10.2 33.1.8 2.9 3.5 4 4.5 6.6-7.2 13-15.2 25-22.7 37.9 5.5-3.5 13.4-.6 19.9-3.2 2.4-.9 4-6.4 5.8-10.7 5-12 10.1-27 12.4-38.3.5-2.6 2-8.3 1.6-10.5-.6-4.2-6.1-7.3-9-9.8-5.3-4.7-8.5-8.8-14.1-13.3-2 3.3-6.9 5.5-8.6 8.2M59.6 54c-6.1 6.8-4.8 19.5-4.1 28.7 11.2-7 26 .5 25.9 12.5 5.3-.1 2-6.7 1-11-3.2-13.8 5.3-28.6.4-41.2q-14.6 1.3-23.2 11M104 14.5c-14 4-32 14.2-37.7 26.8 4.4-.7 7.5-2.9 11.9-3.2 1.7-.1 3.9.7 5.7.2 3.8-1 7-9.5 10-12.7 2.7-3 6.1-4.5 8.4-7.2 1.5-.7 3.7-.7 3.8-3q-.9-1-2.1-1m73 3.9c-14.9-8.3-39.5-14.4-55-6.7-12.5 6.3-29.3 16.6-35 29.6 5.3 12.6-1.7 24-2.2 36.9-.2 6.8 3.2 12.7 3.5 20.1-1.9 3.1-7.4 3.4-11.3 3.2-1.3-6.5-3.6-13.9-10.3-14.7-9.5-1-16.6 6.9-17 15.1-.5 9.7 7.5 25.8 18.8 24.7 4.3-.4 5.4-4.7 10.2-4.7 2.6 5.1-4 6.7-4.7 10.4a25 25 0 0 0 1 6.4 92 92 0 0 0 11.1 26c5.8 8.2 17 9.3 29.1 10.1 2.2-4.6 10.1-4.2 15.3-3a51 51 0 0 1-16.8-13.7c-5.4-6-11-12.5-11.3-20.5 10.4 14.4 19 27 37.8 33.4 14.3 4.7 31-2.2 42-10 4.5-3.1 7.2-8.3 10.5-12.9a110 110 0 0 0 16.6-66.3c-.5-10-.5-19.9-4-26.5-3.4-7-15.2-13.3-22.1-7-1.3-6.8 5.7-11 14-8.5-5.9-7.6-12-16.7-20.5-21.4M204 242.6c11.4-5.6 32.7-15.2 39.7 0a118 118 0 0 1 7 21c2 8-2 25.3-10.5 28a50 50 0 0 1-25 .5q-1.7-1.5-3-4a35 35 0 0 0-17.4 3c.5 4.8-2.7 5.5-5.8 6.5-2.2 8.8 4.5 20.3 2.9 28.3-1 5.7-8.1 6.6-13.3 7.6q-.1 4.7.6 8.5c-1.2 4.4-6.5 6.9-11.5 7.5-16.6 2-41.7 2.8-57.6-3-4.4-10.8-7.9-24-11.6-36.4-15.4 1.7-28-6.7-39.9-12.2-4-2-9.7-3-11.3-6.3-1.5-3.2-.9-9.2-1.3-14.9-.9-14.5-1.7-28.6-5.5-43.5-1.7-6.8-4.8-12.6-6.9-19-2-6-5.3-13.5-6.2-19.4-1.3-8.9 7-9.3 12.3-13.2 8.2-6 14.7-9.2 23.6-14.6 2.7-1.6 10.6-5.6 11.5-7.4 1.8-3.7-3-8.9-4.4-11.8-2-4.5-3.1-8.4-3.4-12.9a25 25 0 0 1-16.6-10.6c-5.7-8.3-9.6-23.7-4.7-35.3.4-.9 2.3-2.8 2.6-4.2.6-2.7-1-6.4-1.2-9.4-.5-15.2 2.6-28.3 12.8-32.8 4.2-16.6 19-22 33-30.3 5.3-3 11-5 17-7.2 21.4-7.9 54.2-6.4 72 7a95 95 0 0 1 23.8 26.4c11.4 23 10.5 61.3 2.6 89.3-1.1 3.8-2.6 9.2-4.8 13.8-1.5 3.2-6.1 9.4-5.6 12.2.5 2.9 10.7 10.5 12.9 12.6 3.8 3.8 11.3 8.7 11.9 13.5.7 5-2.2 12-3.7 16.9a655 655 0 0 1-15 45.8"/><path fill="#f7e4cd" d="M128.1 129.9c.6-.8 4-2.1 8.7.2 0 0-5.6.9-5.1 10.3l-2.4-.5c0 .1-2.4-8.4-1.2-10"/><path fill="#1d1919" d="M169.2 210.5c0 1.3-1.2 2.5-2.6 2.5s-2.6-1.2-2.6-2.5 1.2-2.6 2.6-2.6 2.6 1.2 2.6 2.6m2.6 12c0 1.4-1.2 2.5-2.6 2.5s-2.6-1.1-2.6-2.5 1.2-2.6 2.6-2.6q2.4.1 2.6 2.6"/><path fill="#231f20" d="m36.6 374.3-2 .3q-1 0-2 .4-1.4.3-1.6 1.2-.4.9-.4 2v24.2a14 14 0 0 1-1.4 6.1 13 13 0 0 1-3.7 4.7 17 17 0 0 1-5.4 2.8q-3 .9-6.2 1-5.8 0-9.3-2.8C1 411.4 1 409.8 1 406.5a7 7 0 0 1 1.6-4.7q1.6-2 4.4-2 2.7 0 4.3 1.7 1.6 1.5 1.6 3.8 0 2-1.4 3.7t-3.2 3v.5q.3.6 1.2 1 1 .5 2 .5a7 7 0 0 0 5.8-2.7q2-2.7 2-8v-24.9q0-1-.2-1.8-.3-1-1.7-1.3l-2.3-.7-2.2-.4v-2.4h23.4v2.5zm36.7 34.1q-1 1.8-2.6 3.4-1.5 1.5-3.4 2.7-2.1 1.2-4.2 1.7-2 .6-4.9.6-4.5 0-7.9-1.2-3.3-1.4-5.5-3.5a15 15 0 0 1-3.2-5.2 20 20 0 0 1-1.1-6.4q0-3.2 1.2-6 1.2-3 3.2-5.2 2.1-2.3 5.4-3.6a19 19 0 0 1 7.2-1.4q4.3 0 7 1 3 1.2 4.7 3t2.5 4.1.8 5v2H51.6q0 6.4 2.5 9.7 2.4 3.3 7.7 3.3 3 0 5.3-1.6a14 14 0 0 0 4-4zm-11.8-11.8-.2-3.8a9 9 0 0 0-.7-3.1q-.5-1.5-1.5-2.2t-2.2-.7q-2.5 0-3.8 2.4a16 16 0 0 0-1.6 7.6zm55.6 19.2H98.4v-2.3l1.4-.2 1.3-.3q.6-.3.9-1 .4-.9.3-1.9v-14.5q0-3.1-1.2-4.8-1.2-1.5-3.5-1.5-1.2-.1-2.2.4l-2.1 1q-.9.6-1.5 1.3l-1 1.2v16.6q0 1 .4 1.8.3.8 1 1 .5.4 1.2.6l1.5.3v2.3H76v-2.3l1.6-.2 1.4-.3q1-.3 1.4-1.1.4-.7.4-1.9v-18q0-1-.5-2-.5-.8-1.3-1.4-.5-.4-1.4-.6l-1.9-.3v-2.3l14.8-.8.5.5v4.5l2.2-2 2.3-1.7q1-.8 3-1.3c2-.5 2.5-.5 3.9-.5q5.1 0 7.5 2.9a11 11 0 0 1 2.5 7.6v15.2q0 1.2.3 1.8.4.7 1.3 1l1.2.5 1.7.3v2.4zm42.7 0h-14.6a110 110 0 0 0-5-8q-2.2-3.5-4.2-6.1l-1.7 1.6v6.7q0 1.1.2 1.8t1.3 1q.6.4 1.3.5l1.5.2v2.3h-19.2v-2.3l1.6-.2 1.3-.3q1-.3 1.4-1.1.3-.7.4-1.9v-34.5q0-1-.5-2.1c-.5-1.1-.7-1.3-1.3-1.7q-.6-.4-1.7-.6l-2.2-.3v-2.3l15.4-.8.5.5v32l5.1-4.8q3-2.7 4.6-4.5 1-.9 1-1.5l.2-.7q0-.6-1-1l-3-.6v-2.2h15.7v2.2q-3.1.8-4.8 1.6l-3.6 2-2.4 1.7-2.8 2.3 5.5 8.2 5.4 7.9q.9 1.4 2.4 2l2.9.6v2.4zm19.8 0h-19.5v-2.3l1.5-.2 1.3-.3q1-.3 1.4-1.1c.4-.8.4-1.1.4-1.9v-18q0-1.2-.5-2a3 3 0 0 0-1.2-1.2l-1.7-.7q-1.1-.4-2-.4v-2.3l15.1-.8.5.5v24.6q0 1 .5 1.9t1.3 1q.7.5 1.4.6l1.6.3zm-4.5-42.2q0 2.4-1.8 4a6 6 0 0 1-4.2 1.6q-2.5 0-4.4-1.6a5 5 0 0 1-1.8-4q0-2.4 1.8-4a6.3 6.3 0 0 1 8.6 0q1.8 1.6 1.8 4m48.3 42.2h-18.7v-2.3l1.4-.2 1.3-.3q.6-.3.9-1t.3-1.9v-14.5q0-3.1-1.2-4.8-1.2-1.5-3.5-1.5-1.2-.1-2.3.4a11 11 0 0 0-3.5 2.3l-1 1.2v16.6q0 1 .4 1.8.3.8 1 1 .3.4 1.1.6l1.5.3v2.3h-18.8v-2.3l1.6-.2 1.4-.3q.9-.3 1.3-1.1.3-.7.4-1.9v-18q0-1-.5-2l-1.2-1.4q-.6-.4-1.4-.6l-2-.3v-2.3l14.9-.8.5.5v4.5l2.1-2 2.3-1.7q1.2-.8 3-1.3c1.8-.5 2.6-.5 4-.5q5 0 7.5 2.9a11 11 0 0 1 2.5 7.6v15.2q0 1.2.3 1.8t1.3 1l1.2.5 1.7.3v2.4zm17.1 1q-3 0-5.8-.8-3-.8-4.5-2l-.9 2.1H227l-.4-11.5h2.3q.4 1.4 1.6 3.2 1.1 1.7 2.5 3.2a17 17 0 0 0 3.4 2.4q1.8 1 4 1 2.8 0 4-1.1 1.5-1.2 1.5-3.4 0-1.2-.6-2a6 6 0 0 0-1.7-1.5q-1.2-.7-2.7-1l-3.6-1.2-3.5-1.2a11 11 0 0 1-5.3-5q-.9-1.5-.8-4 0-4.3 3.7-7c3.7-2.7 5.6-2.7 9.6-2.7a21 21 0 0 1 9.1 1.9l.7-1.8h2.4l.5 10.5h-2.2q-1.1-3.3-3.6-5.5-2.7-2.4-5.7-2.4-2.4 0-3.8 1c-1.4 1-1.4 1.6-1.4 2.7q0 2.4 2 3.4t5.6 2a20 20 0 0 1 8.1 3.9 9 9 0 0 1 2.6 6.2q0 5-4 7.9-4.4 2.7-10.7 2.7"/></svg>